999
DXF generated by OpenJsCad
  0
SECTION
  2
HEADER
  0
ENDSEC
  0
SECTION
  2
TABLES
  0
TABLE
  2
LTYPE
  70
1
  0
LTYPE
  2
CONTINUOUS
  3
Solid Line
  72
65
  73
0
  40
0.0
  0
ENDTAB
  0
TABLE
  2
LAYER
  70
1
  0
LAYER
  2
OpenJsCad
  62
7
  6
continuous
  0
ENDTAB
  0
TABLE
  2
STYLE
  70
0
  0
ENDTAB
  0
TABLE
  2
VIEW
  70
0
  0
ENDTAB
  0
ENDSEC
  0
SECTION
  2
BLOCKS
  0
ENDSEC
  0
SECTION
  2
ENTITIES
  0
LWPOLYLINE
  8
OpenJsCad
  90
476
  70
1
 10
32.99907986992598
 20
-9.467575373949527
 30
0.0
 10
33.2974363440662
 20
-8.549328565278508
 30
0.0
 10
33.478353346552225
 20
-7.6009284253020235
 30
0.0
 10
32.78323901544472
 20
-7.007628117789345
 30
0.0
 10
31.86882629137371
 20
-6.350998166674275
 30
0.0
 10
31.084194213004835
 20
-5.881745467703303
 30
0.0
 10
30.453014255066474
 20
-5.5727832461873525
 30
0.0
 10
29.995275832688343
 20
-5.394486699647306
 30
0.0
 10
29.47988050608288
 20
-5.241998482561765
 30
0.0
 10
29.049519698012578
 20
-5.026099331583081
 30
0.0
 10
28.861287747427916
 20
-4.7936340484654245
 30
0.0
 10
29.14668563126924
 20
-2.5344771733838396
 30
0.0
 10
29.386815694020218
 20
-2.3561265971606327
 30
0.0
 10
29.857347861422657
 20
-2.254036695819406
 30
0.0
 10
30.394473373598082
 20
-2.234512782099203
 30
0.0
 10
30.882171649756135
 20
-2.175652666045381
 30
0.0
 10
31.570357708664055
 20
-2.0333651333805385
 30
0.0
 10
32.44703752821282
 20
-1.7739849338785099
 30
0.0
 10
33.496019523520424
 20
-1.3653894173075158
 30
0.0
 10
34.31684334622135
 20
-0.9635966345277025
 30
0.0
 10
34.37746770784939
 20
-1.4477008892400383e-15
 30
0.0
 10
34.31684334622134
 20
0.9635966345277097
 30
0.0
 10
33.49601952352121
 20
1.36538941730713
 30
0.0
 10
32.447037528212405
 20
1.773984933878577
 30
0.0
 10
31.570357708664055
 20
2.0333651333805403
 30
0.0
 10
30.882171649756074
 20
2.1756526660453757
 30
0.0
 10
30.394473373598107
 20
2.234512782099216
 30
0.0
 10
29.85734786142269
 20
2.254036695819992
 30
0.0
 10
29.386815694020207
 20
2.356126597160734
 30
0.0
 10
29.146685631269232
 20
2.5344771733837765
 30
0.0
 10
28.861287747427937
 20
4.793634048465365
 30
0.0
 10
29.04951969801256
 20
5.026099331583183
 30
0.0
 10
29.4798805060827
 20
5.241998482562324
 30
0.0
 10
29.995275832688314
 20
5.394486699647313
 30
0.0
 10
30.45301425506653
 20
5.572783246187362
 30
0.0
 10
31.084194213004835
 20
5.881745467703305
 30
0.0
 10
31.86882629137409
 20
6.350998166674442
 30
0.0
 10
32.783239015444046
 20
7.007628117788773
 30
0.0
 10
33.47835334655223
 20
7.600928425302032
 30
0.0
 10
33.297436344066206
 20
8.549328565278502
 30
0.0
 10
32.999079869925964
 20
9.467575373949542
 30
0.0
 10
32.10412193519233
 20
9.652614513763185
 30
0.0
 10
30.98648206529688
 20
9.78750203677563
 30
0.0
 10
30.072839521834123
 20
9.820711924940234
 30
0.0
 10
29.370888623008995
 20
9.787384319779681
 30
0.0
 10
28.883874369390984
 20
9.723109607783288
 30
0.0
 10
28.35876824298505
 20
9.60844245883629
 30
0.0
 10
27.877629982824544
 20
9.59030842657746
 30
0.0
 10
27.600690062886493
 20
9.703337873274256
 30
0.0
 10
26.762429010024327
 20
11.820543613296682
 30
0.0
 10
26.886935542718675
 20
12.09251695462331
 30
0.0
 10
27.25008383912913
 20
12.408659617562813
 30
0.0
 10
27.71136479630288
 20
12.684530742520705
 30
0.0
 10
28.110381976379077
 20
12.97106069179904
 30
0.0
 10
28.644896475272994
 20
13.427284369504672
 30
0.0
 10
29.288179493303886
 20
14.076924695077855
 30
0.0
 10
30.010567031708117
 20
14.940330605990978
 30
0.0
 10
30.536295281348348
 20
15.687859197910724
 30
0.0
 10
30.125204595380634
 20
16.561471374569518
 30
0.0
 10
29.607862843276802
 20
17.376671533319552
 30
0.0
 10
28.695004294974005
 20
17.33333034048657
 30
0.0
 10
27.57893197390937
 20
17.186034390787533
 30
0.0
 10
26.685734227680197
 20
16.99098726820397
 30
0.0
 10
26.014124645505923
 20
16.784138621220627
 30
0.0
 10
25.55839531109583
 20
16.600767697714584
 30
0.0
 10
25.078302919586697
 20
16.359114444784428
 30
0.0
 10
24.616790253056802
 20
16.221895906865154
 30
0.0
 10
24.320441629615164
 20
16.262502168206517
 30
0.0
 10
22.981988432591947
 20
18.104724949986135
 30
0.0
 10
23.034946344043835
 20
18.39911726423804
 30
0.0
 10
23.308064185765133
 20
18.795639032934037
 30
0.0
 10
23.68624679449511
 20
19.177559068400697
 30
0.0
 10
24.00147101536256
 20
19.554318689920724
 30
0.0
 10
24.405734543439767
 20
20.12913761227248
 30
0.0
 10
24.86724866327996
 20
20.918346273581953
 30
0.0
 10
25.35222075022501
 20
21.93427717552638
 30
0.0
 10
25.67552947897914
 20
22.789064081204447
 30
0.0
 10
25.06009544921487
 20
23.53299602856525
 30
0.0
 10
24.356274904082
 20
24.193927513323548
 30
0.0
 10
23.482874002058807
 20
23.924929274387402
 30
0.0
 10
22.438496158384346
 20
23.504704998213082
 30
0.0
 10
21.621866108735865
 20
23.093656392926416
 30
0.0
 10
21.022797543267718
 20
22.726283765346352
 30
0.0
 10
20.62698827820177
 20
22.435338499845635
 30
0.0
 10
20.222075592204277
 20
22.081883105552414
 30
0.0
 10
19.809187057467916
 20
21.83420200736464
 30
0.0
 10
19.512050404427523
 20
21.799833642611116
 30
0.0
 10
17.757505000098757
 20
23.251319833547257
 30
0.0
 10
17.73558674996609
 20
23.549633368920798
 30
0.0
 10
17.901513138545717
 20
24.001619322341057
 30
0.0
 10
18.172834794667065
 20
24.465590827884483
 30
0.0
 10
18.384459359215086
 20
24.90890692900113
 30
0.0
 10
18.633070552229235
 20
25.566203109071537
 30
0.0
 10
18.883817144398968
 20
26.44539122342081
 30
0.0
 10
19.100901200059504
 20
27.550012441494868
 30
0.0
 10
19.201475731453588
 20
28.45834825596117
 30
0.0
 10
18.420368341390894
 20
29.025855993780986
 30
0.0
 10
17.574292636550577
 20
29.49099004862422
 30
0.0
 10
16.795228371624937
 20
29.013236912243578
 30
0.0
 10
15.888167106211752
 20
28.346488546342794
 30
0.0
 10
15.199416622518603
 20
27.745266153954205
 30
0.0
 10
14.71053075494501
 20
27.240452919070293
 30
0.0
 10
14.399511711031959
 20
26.860214472628144
 30
0.0
 10
14.09522088377201
 20
26.41716583931332
 30
0.0
 10
13.756899785964483
 20
26.074584895163547
 30
0.0
 10
13.477645292028031
 20
25.967401395070596
 30
0.0
 10
11.41725222091431
 20
26.936948779593944
 30
0.0
 10
11.321835013462609
 20
27.22043939954116
 30
0.0
 10
11.370144183671538
 20
27.699489597944233
 30
0.0
 10
11.517556749678908
 20
28.216359537503294
 30
0.0
 10
11.612284508216236
 20
28.69837693718084
 30
0.0
 10
11.689622210582245
 20
29.396850038609813
 30
0.0
 10
11.713845944514032
 20
30.31077498334661
 30
0.0
 10
11.649401779293596
 20
31.434679103906053
 30
0.0
 10
11.520922645632886
 20
32.33948974731223
 30
0.0
 10
10.623221745301434
 20
32.69491467727638
 30
0.0
 10
9.688052928937571
 20
32.935025218895355
 30
0.0
 10
9.052276774072693
 20
32.27853617168215
 30
0.0
 10
8.33952608216467
 20
31.407157968013397
 30
0.0
 10
7.8219318903643895
 20
30.653538802577955
 30
0.0
 10
7.473947217741454
 20
30.04300423251115
 30
0.0
 10
7.267260865358381
 20
29.59736438513672
 30
0.0
 10
7.082711608616102
 20
29.09256088785035
 30
0.0
 10
6.840215906570616
 20
28.67660571838409
 30
0.0
 10
6.596390158618322
 20
28.503341816455894
 30
0.0
 10
4.3596114949733735
 20
28.930030166650994
 30
0.0
 10
4.196690744266769
 20
29.180885112915036
 30
0.0
 10
4.124347253272073
 20
29.656899070511866
 30
0.0
 10
4.1385882554977265
 20
30.1941906048694
 30
0.0
 10
4.1104671145711364
 20
30.68462237715011
 30
0.0
 10
4.011671914021172
 20
31.380384766170494
 30
0.0
 10
3.807850723423422
 20
32.27162127583618
 30
0.0
 10
3.4659276012318725
 20
33.34418926955603
 30
0.0
 10
3.1164676189974725
 20
34.1886221615161
 30
0.0
 10
2.1585790574780686
 20
34.30963162811348
 30
0.0
 10
1.1930772256331241
 20
34.30963162811347
 30
0.0
 10
0.7405373348603097
 20
33.51565629130193
 30
0.0
 10
0.26688196374371453
 20
32.49440014710659
 30
0.0
 10
-0.047033589514608724
 20
31.635736872406007
 30
0.0
 10
-0.2322519104078885
 20
30.9578430995827
 30
0.0
 10
-0.32161870760152056
 20
30.47480304183523
 30
0.0
 10
-0.37483048530032553
 20
29.93996334084921
 30
0.0
 10
-0.5062638947874474
 20
29.476769939140134
 30
0.0
 10
-0.6993404282833673
 20
29.248312443554898
 30
0.0
 10
-2.9719596547262443
 20
29.10533136112901
 30
0.0
 10
-3.1921470387402464
 20
29.30778849485615
 30
0.0
 10
-3.380597583338622
 20
29.750856504034058
 30
0.0
 10
-3.500422959439266
 20
30.274809630066343
 30
0.0
 10
-3.6496260451230342
 20
30.74284014301593
 30
0.0
 10
-3.9183464827950854
 20
31.392174509890502
 30
0.0
 10
-4.337405762915214
 20
32.20472291684418
 30
0.0
 10
-4.9353235548053
 20
33.158561392049876
 30
0.0
 10
-5.48380652970569
 20
33.88955770835504
 30
0.0
 10
-6.4416950912251165
 20
33.76854824175766
 30
0.0
 10
-7.376863907588975
 20
33.52843770013867
 30
0.0
 10
-7.6177327886071735
 20
32.64686446417769
 30
0.0
 10
-7.822531329982485
 20
31.53989965891291
 30
0.0
 10
-7.913043775986984
 20
30.630145246439255
 30
0.0
 10
-7.923857796863546
 20
29.927486829724828
 30
0.0
 10
-7.890289794331972
 20
29.437397744929658
 30
0.0
 10
-7.808820601295257
 20
28.906127785659773
 30
0.0
 10
-7.82093327372767
 20
28.424800296643426
 30
0.0
 10
-7.951128884081849
 20
28.155504032056665
 30
0.0
 10
-10.116791649216394
 20
27.451837544266247
 30
0.0
 10
-10.38041048340764
 20
27.593175739159157
 30
0.0
 10
-10.67312704081996
 20
27.97545820741134
 30
0.0
 10
-10.919489726179592
 20
28.453151023244963
 30
0.0
 10
-11.180399778016461
 20
28.869372198438978
 30
0.0
 10
-11.602160759427026
 20
29.43147847681226
 30
0.0
 10
-12.210127093307364
 20
30.114283376301024
 30
0.0
 10
-13.026470181043715
 20
30.88945915362287
 30
0.0
 10
-13.739512946117827
 20
31.46108770730329
 30
0.0
 10
-14.637213846449272
 20
31.105662777339134
 30
0.0
 10
-15.483289551289584
 20
30.640528722495894
 30
0.0
 10
-15.497352744905013
 20
29.72675007600047
 30
0.0
 10
-15.420426210988081
 20
28.60363127951282
 30
0.0
 10
-15.281848319874802
 20
27.699948944844493
 30
0.0
 10
-15.11757855603179
 20
27.016676496758002
 30
0.0
 10
-14.963184954828543
 20
26.550332484534383
 30
0.0
 10
-14.752153800077538
 20
26.056013912395795
 30
0.0
 10
-14.644184651699023
 20
25.586795912405748
 30
0.0
 10
-14.703318669886949
 20
25.293581753523835
 30
0.0
 10
-16.62594841742925
 20
24.073443813701076
 30
0.0
 10
-16.916434560923253
 20
24.14478227116911
 30
0.0
 10
-17.295024673311104
 20
24.44225898507871
 30
0.0
 10
-17.652444794349996
 20
24.843676294263563
 30
0.0
 10
-18.008667874223015
 20
25.181935424510165
 30
0.0
 10
-18.55696860578168
 20
25.621494409629676
 30
0.0
 10
-19.315641232720754
 20
26.131652658637893
 30
0.0
 10
-20.29911577780103
 20
26.679458593089667
 30
0.0
 10
-21.13191523373141
 20
27.055801859814835
 30
0.0
 10
-21.91302262379409
 20
26.48829412199502
 30
0.0
 10
-22.61684316892696
 20
25.82736263723671
 30
0.0
 10
-22.403217032963955
 20
24.938794653208937
 30
0.0
 10
-22.049399000796782
 20
23.870091550023723
 30
0.0
 10
-21.690438131118203
 20
23.029262977759082
 30
0.0
 10
-21.361406255959803
 20
22.40830901911409
 30
0.0
 10
-21.095888173868435
 20
21.99501218884334
 30
0.0
 10
-20.76855492097444
 20
21.568704857700045
 30
0.0
 10
-20.54728805046037
 20
21.141079039338774
 30
0.0
 10
-20.531644868639585
 20
20.842370710130496
 30
0.0
 10
-22.09043570061397
 20
19.182427072387902
 30
0.0
 10
-22.3895368406817
 20
19.179283334783854
 30
0.0
 10
-22.830212298926714
 20
19.373262738373107
 30
0.0
 10
-23.27623183494075
 20
19.67318201506351
 30
0.0
 10
-23.70538513664464
 20
19.91222503517925
 30
0.0
 10
-24.345773866878545
 20
20.20161761942507
 30
0.0
 10
-25.20748259552303
 20
20.50707409893675
 30
0.0
 10
-26.296293275313477
 20
20.793089528967553
 30
0.0
 10
-27.196521569461858
 20
20.950500477195416
 30
0.0
 10
-27.811955599226128
 20
20.2065685298346
 30
0.0
 10
-28.329297351329952
 20
19.39136837108456
 30
0.0
 10
-27.90140480157304
 20
18.583843043885345
 30
0.0
 10
-27.29292695936839
 20
17.63670618039078
 30
0.0
 10
-26.73613794273215
 20
16.911563722076384
 30
0.0
 10
-26.263018239069147
 20
16.391945073803463
 30
0.0
 10
-25.903059153694656
 20
16.057664385330906
 30
0.0
 10
-25.4799913547845
 20
15.726154752647338
 30
0.0
 10
-25.159329773371894
 20
15.36699041878022
 30
0.0
 10
-25.0698923101878
 20
15.081556862142127
 30
0.0
 10
-26.166899665789654
 20
13.086107890084728
 30
0.0
 10
-26.455822177783602
 20
13.008679490004118
 30
0.0
 10
-26.93089372215329
 20
13.086973143939167
 30
0.0
 10
-27.437487625349586
 20
13.26654935695472
 30
0.0
 10
-27.91260586862286
 20
13.391356314846995
 30
0.0
 10
-28.604844618426405
 20
13.512398897839477
 30
0.0
 10
-29.515445120212544
 20
13.59396065385656
 30
0.0
 10
-30.64117795533636
 20
13.600214178106379
 30
0.0
 10
-31.552270433173337
 20
13.528802099042807
 30
0.0
 10
-31.963361119141048
 20
12.655189922384016
 30
0.0
 10
-32.261717593281276
 20
11.736943113712973
 30
0.0
 10
-31.646444692310396
 20
11.061200229520653
 30
0.0
 10
-30.821539940718957
 20
10.29514169817582
 30
0.0
 10
-30.10190787876707
 20
9.731248721354971
 30
0.0
 10
-29.514428197593173
 20
9.34561493414882
 30
0.0
 10
-29.082645662106543
 20
9.111354472529564
 30
0.0
 10
-28.590426222920275
 20
8.895472507734373
 30
0.0
 10
-28.190518277080095
 20
8.627337274372309
 30
0.0
 10
-28.03290621727253
 20
8.373113330419157
 30
0.0
 10
-28.59920108983855
 20
6.167540421709283
 30
0.0
 10
-28.859790909747474
 20
6.0206924702909115
 30
0.0
 10
-29.33940804791816
 20
5.978380896351103
 30
0.0
 10
-29.87474516023685
 20
6.026330611792924
 30
0.0
 10
-30.36597491849198
 20
6.029059427289477
 30
0.0
 10
-31.066567781338968
 20
5.974146458375726
 30
0.0
 10
-31.968843677785163
 20
5.826688665804499
 30
0.0
 10
-33.06076473405575
 20
5.55278735234587
 30
0.0
 10
-33.92547410443508
 20
5.257039329553683
 30
0.0
 10
-34.1063911069211
 20
4.3086391895772165
 30
0.0
 10
-34.16701546854915
 20
3.345042555049503
 30
0.0
 10
-33.40302207554775
 20
2.843541524486366
 30
0.0
 10
-32.41352221389946
 20
2.306695600181863
 30
0.0
 10
-31.57626423570596
 20
1.939483574441516
 30
0.0
 10
-30.911338085988454
 20
1.7120654374141566
 30
0.0
 10
-30.4348625850794
 20
1.592544649001451
 30
0.0
 10
-29.90441946323756
 20
1.5058550099010461
 30
0.0
 10
-29.450392839965488
 20
1.3455967998885772
 30
0.0
 10
-29.234509528908767
 20
1.1385562939892093
 30
0.0
 10
-29.23450952890878
 20
-1.138556293989149
 30
0.0
 10
-29.45039283996548
 20
-1.3455967998886802
 30
0.0
 10
-29.90441946323745
 20
-1.5058550099016248
 30
0.0
 10
-30.434862585079372
 20
-1.5925446490014625
 30
0.0
 10
-30.91133808598851
 20
-1.7120654374141615
 30
0.0
 10
-31.576264235705956
 20
-1.93948357444152
 30
0.0
 10
-32.41352221389987
 20
-2.306695600181982
 30
0.0
 10
-33.403022075547014
 20
-2.843541524485887
 30
0.0
 10
-34.16701546854915
 20
-3.345042555049514
 30
0.0
 10
-34.10639110692111
 20
-4.308639189577193
 30
0.0
 10
-33.925474104435075
 20
-5.257039329553677
 30
0.0
 10
-33.06076473405659
 20
-5.552787352345575
 30
0.0
 10
-31.968843677784747
 20
-5.8266886658045
 30
0.0
 10
-31.06656778133897
 20
-5.974146458375717
 30
0.0
 10
-30.365974918491922
 20
-6.029059427289453
 30
0.0
 10
-29.874745160236873
 20
-6.026330611792928
 30
0.0
 10
-29.33940804791812
 20
-5.978380896351678
 30
0.0
 10
-28.859790909747456
 20
-6.020692470291
 30
0.0
 10
-28.599201089838555
 20
-6.167540421709209
 30
0.0
 10
-28.03290621727256
 20
-8.37311333041909
 30
0.0
 10
-28.190518277080066
 20
-8.627337274372396
 30
0.0
 10
-28.59042622292003
 20
-8.895472507734896
 30
0.0
 10
-29.08264566210652
 20
-9.111354472529557
 30
0.0
 10
-29.51442819759323
 20
-9.345614934148825
 30
0.0
 10
-30.10190787876707
 20
-9.731248721354962
 30
0.0
 10
-30.82153994071932
 20
-10.295141698176023
 30
0.0
 10
-31.64644469230981
 20
-11.06120022951999
 30
0.0
 10
-32.26171759328128
 20
-11.73694311371297
 30
0.0
 10
-31.963361119141048
 20
-12.655189922384013
 30
0.0
 10
-31.552270433173327
 20
-13.528802099042814
 30
0.0
 10
-30.641177955337238
 20
-13.600214178106315
 30
0.0
 10
-29.515445120212135
 20
-13.59396065385647
 30
0.0
 10
-28.6048446184264
 20
-13.512398897839484
 30
0.0
 10
-27.912605868622812
 20
-13.391356314846972
 30
0.0
 10
-27.437487625349604
 20
-13.266549356954743
 30
0.0
 10
-26.930893722153105
 20
-13.086973143939728
 30
0.0
 10
-26.45582217778356
 20
-13.00867949000421
 30
0.0
 10
-26.16689966578967
 20
-13.086107890084671
 30
0.0
 10
-25.069892310187843
 20
-15.081556862142081
 30
0.0
 10
-25.15932977337184
 20
-15.366990418780311
 30
0.0
 10
-25.479991354784126
 20
-15.726154752647794
 30
0.0
 10
-25.903059153694628
 20
-16.057664385330902
 30
0.0
 10
-26.263018239069197
 20
-16.39194507380349
 30
0.0
 10
-26.736137942732146
 20
-16.911563722076384
 30
0.0
 10
-27.292926959368685
 20
-17.636706180391077
 30
0.0
 10
-27.901404801572625
 20
-18.583843043884567
 30
0.0
 10
-28.329297351329952
 20
-19.39136837108457
 30
0.0
 10
-27.811955599226124
 20
-20.206568529834602
 30
0.0
 10
-27.19652156946185
 20
-20.950500477195416
 30
0.0
 10
-26.296293275314344
 20
-20.793089528967702
 30
0.0
 10
-25.207482595522652
 20
-20.50707409893656
 30
0.0
 10
-24.34577386687854
 20
-20.201617619425072
 30
0.0
 10
-23.705385136644594
 20
-19.912225035179212
 30
0.0
 10
-23.276231834940763
 20
-19.67318201506353
 30
0.0
 10
-22.830212298926398
 20
-19.3732627383736
 30
0.0
 10
-22.389536840681632
 20
-19.17928333478393
 30
0.0
 10
-22.090435700614
 20
-19.182427072387846
 30
0.0
 10
-20.531644868639642
 20
-20.84237071013046
 30
0.0
 10
-20.5472880504603
 20
-21.14107903933884
 30
0.0
 10
-20.76855492097397
 20
-21.56870485770039
 30
0.0
 10
-21.09588817386841
 20
-21.995012188843322
 30
0.0
 10
-21.361406255959846
 20
-22.408309019114125
 30
0.0
 10
-21.690438131118203
 20
-23.02926297775908
 30
0.0
 10
-22.049399000796996
 20
-23.870091550024085
 30
0.0
 10
-22.40321703296375
 20
-24.938794653208078
 30
0.0
 10
-22.61684316892696
 20
-25.82736263723672
 30
0.0
 10
-21.91302262379409
 20
-26.488294121995022
 30
0.0
 10
-21.131915233731387
 20
-27.055801859814842
 30
0.0
 10
-20.299115777801823
 20
-26.67945859309004
 30
0.0
 10
-19.315641232720424
 20
-26.131652658637627
 30
0.0
 10
-18.556968605781666
 20
-25.62149440962969
 30
0.0
 10
-18.00866787422297
 20
-25.181935424510126
 30
0.0
 10
-17.652444794349993
 20
-24.843676294263595
 30
0.0
 10
-17.29502467331066
 20
-24.442258985079114
 30
0.0
 10
-16.916434560923157
 20
-24.144782271169174
 30
0.0
 10
-16.62594841742928
 20
-24.073443813701036
 30
0.0
 10
-14.703318669886995
 20
-25.293581753523817
 30
0.0
 10
-14.64418465169892
 20
-25.586795912405805
 30
0.0
 10
-14.75215380007698
 20
-26.05601391239602
 30
0.0
 10
-14.963184954828508
 20
-26.550332484534376
 30
0.0
 10
-15.117578556031802
 20
-27.01667649675806
 30
0.0
 10
-15.281848319874783
 20
-27.699948944844497
 30
0.0
 10
-15.420426210988184
 20
-28.603631279513227
 30
0.0
 10
-15.497352744905008
 20
-29.726750075999597
 30
0.0
 10
-15.483289551289564
 20
-30.64052872249591
 30
0.0
 10
-14.63721384644928
 20
-31.105662777339134
 30
0.0
 10
-13.739512946117815
 20
-31.46108770730328
 30
0.0
 10
-13.0264701810444
 20
-30.889459153623424
 30
0.0
 10
-12.210127093307126
 20
-30.114283376300683
 30
0.0
 10
-11.602160759427024
 20
-29.431478476812263
 30
0.0
 10
-11.180399778016438
 20
-28.869372198438924
 30
0.0
 10
-10.919489726179586
 20
-28.453151023244992
 30
0.0
 10
-10.673127040819441
 20
-27.975458207411616
 30
0.0
 10
-10.380410483407543
 20
-27.593175739159193
 30
0.0
 10
-10.116791649216445
 20
-27.451837544266215
 30
0.0
 10
-7.9511288840819105
 20
-28.155504032056662
 30
0.0
 10
-7.8209332737275705
 20
-28.42480029664345
 30
0.0
 10
-7.8088206012946735
 20
-28.90612778565985
 30
0.0
 10
-7.890289794331952
 20
-29.437397744929637
 30
0.0
 10
-7.92385779686356
 20
-29.927486829724888
 30
0.0
 10
-7.913043775986979
 20
-30.630145246439255
 30
0.0
 10
-7.822531329982495
 20
-31.53989965891333
 30
0.0
 10
-7.617732788607401
 20
-32.64686446417684
 30
0.0
 10
-7.376863907588968
 20
-33.52843770013868
 30
0.0
 10
-6.441695091225109
 20
-33.76854824175766
 30
0.0
 10
-5.48380652970568
 20
-33.889557708355035
 30
0.0
 10
-4.935323554805825
 20
-33.158561392050586
 30
0.0
 10
-4.337405762915069
 20
-32.20472291684379
 30
0.0
 10
-3.918346482795081
 20
-31.392174509890506
 30
0.0
 10
-3.649626045123026
 20
-30.74284014301587
 30
0.0
 10
-3.500422959439255
 20
-30.274809630066375
 30
0.0
 10
-3.3805975833380506
 20
-29.750856504034203
 30
0.0
 10
-3.192147038740143
 20
-29.30778849485616
 30
0.0
 10
-2.9719596547263025
 20
-29.105331361128993
 30
0.0
 10
-0.6993404282834281
 20
-29.24831244355491
 30
0.0
 10
-0.5062638947873428
 20
-29.476769939140134
 30
0.0
 10
-0.3748304852997401
 20
-29.939963340849143
 30
0.0
 10
-0.3216187076015061
 20
-30.474803041835205
 30
0.0
 10
-0.2322519104078874
 20
-30.95784309958276
 30
0.0
 10
-0.04703358951460441
 20
-31.635736872406007
 30
0.0
 10
0.2668819637438091
 20
-32.494400147107
 30
0.0
 10
0.7405373348598787
 20
-33.51565629130116
 30
0.0
 10
1.1930772256331352
 20
-34.309631628113486
 30
0.0
 10
2.1585790574780472
 20
-34.30963162811348
 30
0.0
 10
3.116467618997475
 20
-34.188622161516086
 30
0.0
 10
3.465927601231534
 20
-33.34418926955685
 30
0.0
 10
3.807850723423458
 20
-32.27162127583577
 30
0.0
 10
4.0116719140211705
 20
-31.380384766170497
 30
0.0
 10
4.110467114571124
 20
-30.684622377150053
 30
0.0
 10
4.138588255497737
 20
-30.19419060486943
 30
0.0
 10
4.124347253272655
 20
-29.656899070511866
 30
0.0
 10
4.196690744266865
 20
-29.18088511291502
 30
0.0
 10
4.359611494973305
 20
-28.93003016665099
 30
0.0
 10
6.596390158618259
 20
-28.503341816455922
 30
0.0
 10
6.840215906570711
 20
-28.676605718384067
 30
0.0
 10
7.082711608616645
 20
-29.09256088785014
 30
0.0
 10
7.267260865358383
 20
-29.597364385136693
 30
0.0
 10
7.473947217741463
 20
-30.043004232511212
 30
0.0
 10
7.821931890364388
 20
-30.653538802577952
 30
0.0
 10
8.339526082164857
 20
-31.40715796801377
 30
0.0
 10
9.052276774072078
 20
-32.278536171681516
 30
0.0
 10
9.688052928937577
 20
-32.93502521889536
 30
0.0
 10
10.623221745301462
 20
-32.69491467727637
 30
0.0
 10
11.52092264563292
 20
-32.33948974731221
 30
0.0
 10
11.649401779293504
 20
-31.434679103906916
 30
0.0
 10
11.713845944513995
 20
-30.310774983346192
 30
0.0
 10
11.689622210582273
 20
-29.396850038609806
 30
0.0
 10
11.61228450821624
 20
-28.698376937180775
 30
0.0
 10
11.517556749678954
 20
-28.21635953750331
 30
0.0
 10
11.37014418367213
 20
-27.699489597944073
 30
0.0
 10
11.321835013462728
 20
-27.22043939954111
 30
0.0
 10
11.417252220914273
 20
-26.936948779593948
 30
0.0
 10
13.477645292028006
 20
-25.967401395070624
 30
0.0
 10
13.756899785964597
 20
-26.07458489516349
 30
0.0
 10
14.09522088377251
 20
-26.41716583931296
 30
0.0
 10
14.399511711031982
 20
-26.860214472628105
 30
0.0
 10
14.710530754945065
 20
-27.240452919070332
 30
0.0
 10
15.199416622518628
 20
-27.74526615395419
 30
0.0
 10
15.888167106212054
 20
-28.346488546343092
 30
0.0
 10
16.795228371624216
 20
-29.013236912243105
 30
0.0
 10
17.574292636550624
 20
-29.49099004862421
 30
0.0
 10
18.42036834139091
 20
-29.025855993780983
 30
0.0
 10
19.201475731453602
 20
-28.458348255961155
 30
0.0
 10
19.10090120005962
 20
-27.550012441495735
 30
0.0
 10
18.88381714439882
 20
-26.44539122342042
 30
0.0
 10
18.633070552229253
 20
-25.56620310907153
 30
0.0
 10
18.384459359215064
 20
-24.90890692900108
 30
0.0
 10
18.172834794667104
 20
-24.46559082788449
 30
0.0
 10
17.90151313854624
 20
-24.001619322340762
 30
0.0
 10
17.73558674996618
 20
-23.54963336892073
 30
0.0
 10
17.75750500009871
 20
-23.251319833547278
 30
0.0
 10
19.512050404427494
 20
-21.79983364261116
 30
0.0
 10
19.809187057468
 20
-21.834202007364567
 30
0.0
 10
20.22207559220466
 20
-22.081883105551956
 30
0.0
 10
20.62698827820177
 20
-22.4353384998456
 30
0.0
 10
21.022797543267767
 20
-22.726283765346384
 30
0.0
 10
21.621866108735876
 20
-23.093656392926402
 30
0.0
 10
22.438496158384705
 20
-23.504704998213306
 30
0.0
 10
23.48287400205798
 20
-23.92492927438713
 30
0.0
 10
24.35627490408202
 20
-24.19392751332354
 30
0.0
 10
25.060095449214867
 20
-23.532996028565258
 30
0.0
 10
25.675529478979133
 20
-22.78906408120444
 30
0.0
 10
25.352220750225317
 20
-21.934277175527207
 30
0.0
 10
24.8672486632797
 20
-20.918346273581626
 30
0.0
 10
24.405734543439767
 20
-20.12913761227248
 30
0.0
 10
24.00147101536251
 20
-19.55431868992069
 30
0.0
 10
23.68624679449513
 20
-19.177559068400708
 30
0.0
 10
23.308064185765552
 20
-18.795639032933636
 30
0.0
 10
23.034946344043895
 20
-18.399117264237965
 30
0.0
 10
22.981988432591898
 20
-18.10472494998618
 30
0.0
 10
24.320441629615132
 20
-16.26250216820658
 30
0.0
 10
24.616790253056855
 20
-16.221895906865072
 30
0.0
 10
25.07830291958695
 20
-16.359114444783902
 30
0.0
 10
25.558395311095808
 20
-16.600767697714566
 30
0.0
 10
26.01412464550597
 20
-16.78413862122066
 30
0.0
 10
26.685734227680193
 20
-16.99098726820397
 30
0.0
 10
27.57893197390976
 20
-17.186034390787675
 30
0.0
 10
28.69500429497312
 20
-17.33333034048653
 30
0.0
 10
29.60786284327681
 20
-17.376671533319545
 30
0.0
 10
30.125204595380634
 20
-16.56147137456951
 30
0.0
 10
30.53629528134835
 20
-15.687859197910706
 30
0.0
 10
30.01056703170863
 20
-14.940330605991688
 30
0.0
 10
29.28817949330356
 20
-14.076924695077587
 30
0.0
 10
28.644896475272997
 20
-13.42728436950466
 30
0.0
 10
28.110381976379028
 20
-12.971060691799007
 30
0.0
 10
27.711364796302913
 20
-12.684530742520694
 30
0.0
 10
27.25008383912944
 20
-12.408659617562307
 30
0.0
 10
26.886935542718714
 20
-12.092516954623207
 30
0.0
 10
26.76242901002429
 20
-11.820543613296724
 30
0.0
 10
27.600690062886486
 20
-9.70333787327431
 30
0.0
 10
27.877629982824583
 20
-9.590308426577353
 30
0.0
 10
28.358768242985164
 20
-9.608442458835706
 30
0.0
 10
28.883874369390963
 20
-9.72310960778326
 30
0.0
 10
29.37088862300905
 20
-9.78738431977969
 30
0.0
 10
30.072839521834126
 20
-9.820711924940221
 30
0.0
 10
30.9864820652973
 20
-9.787502036775658
 30
0.0
 10
32.104121935191465
 20
-9.652614513763352
 30
0.0
 10
32.99907986992598
 20
-9.467575373949527
 30
0.0
  0
LWPOLYLINE
  8
OpenJsCad
  90
31
  70
1
 10
0.41582338163551874
 20
-1.9562952014676114
 30
0.0
 10
1.2246467991473532e-16
 20
-2
 30
0.0
 10
-0.41582338163551785
 20
-1.9562952014676114
 30
0.0
 10
-0.8134732861516002
 20
-1.827090915285202
 30
0.0
 10
-1.1755705045849467
 20
-1.6180339887498947
 30
0.0
 10
-1.486289650954788
 20
-1.338261212717717
 30
0.0
 10
-1.7320508075688772
 20
-1.0000000000000002
 30
0.0
 10
-1.9021130325903073
 20
-0.6180339887498946
 30
0.0
 10
-1.9890437907365468
 20
-0.20905692653530608
 30
0.0
 10
-1.9890437907365466
 20
0.20905692653530836
 30
0.0
 10
-1.902113032590307
 20
0.618033988749895
 30
0.0
 10
-1.732050807568877
 20
1.0000000000000009
 30
0.0
 10
-1.486289650954788
 20
1.338261212717717
 30
0.0
 10
-1.175570504584946
 20
1.618033988749895
 30
0.0
 10
-0.8134732861516005
 20
1.8270909152852017
 30
0.0
 10
-0.41582338163551824
 20
1.9562952014676114
 30
0.0
 10
1.0106430996148606e-15
 20
2
 30
0.0
 10
0.4158233816355185
 20
1.9562952014676114
 30
0.0
 10
0.8134732861516
 20
1.827090915285202
 30
0.0
 10
1.1755705045849465
 20
1.6180339887498947
 30
0.0
 10
1.486289650954789
 20
1.3382612127177158
 30
0.0
 10
1.7320508075688774
 20
0.9999999999999997
 30
0.0
 10
1.9021130325903073
 20
0.6180339887498948
 30
0.0
 10
1.9890437907365468
 20
0.20905692653530678
 30
0.0
 10
1.9890437907365466
 20
-0.2090569265353068
 30
0.0
 10
1.902113032590307
 20
-0.6180339887498948
 30
0.0
 10
1.7320508075688772
 20
-1.0000000000000002
 30
0.0
 10
1.4862896509547885
 20
-1.3382612127177165
 30
0.0
 10
1.1755705045849463
 20
-1.618033988749895
 30
0.0
 10
0.8134732861516004
 20
-1.8270909152852017
 30
0.0
 10
0.41582338163551874
 20
-1.9562952014676114
 30
0.0
  0
LWPOLYLINE
  8
OpenJsCad
  90
171
  70
1
 10
30.339608275643698
 20
5.463313437112664
 30
0.0
 10
30.032310875830078
 20
4.721431886800633
 30
0.0
 10
29.844852660385243
 20
3.940612225106697
 30
0.0
 10
30.17948631636679
 20
3.464799434304558
 30
0.0
 10
31.296096324222
 20
2.427845021019545
 30
0.0
 10
32.14870333676684
 20
1.9179396107923021
 30
0.0
 10
32.55427675705495
 20
1.7792253314562818
 30
0.0
 10
32.671409056568656
 20
1.7897167775029836
 30
0.0
 10
33.85781145934206
 20
1.6146942012681862
 30
0.0
 10
34.42746770784941
 20
1.1385562939892298
 30
0.0
 10
34.42746770784939
 20
-1.138556293989159
 30
0.0
 10
33.85781145934205
 20
-1.6146942012681982
 30
0.0
 10
32.67140905656865
 20
-1.7897167775029965
 30
0.0
 10
32.55427675705494
 20
-1.7792253314562203
 30
0.0
 10
32.1487033367668
 20
-1.917939610792251
 30
0.0
 10
31.296096324221992
 20
-2.4278450210195657
 30
0.0
 10
30.179486316366788
 20
-3.464799434304574
 30
0.0
 10
29.844852660385243
 20
-3.9406122251067117
 30
0.0
 10
30.032310875830078
 20
-4.7214318868006435
 30
0.0
 10
30.339608275643698
 20
-5.463313437112674
 30
0.0
 10
30.890008331508213
 20
-5.651561343105908
 30
0.0
 10
32.40287131538075
 20
-5.834148190666112
 30
0.0
 10
33.39235975824849
 20
-5.745520505088679
 30
0.0
 10
33.80200975540444
 20
-5.619352639266823
 30
0.0
 10
33.89060505903977
 20
-5.542016242898215
 30
0.0
 10
34.95330045417977
 20
-4.9862626458368915
 30
0.0
 10
35.69402888013007
 20
-5.03663076274281
 30
0.0
 10
37.0324820771533
 20
-6.878853544522457
 30
0.0
 10
36.85148733111501
 20
-7.598892744926191
 30
0.0
 10
35.994543314233105
 20
-8.437838819133988
 30
0.0
 10
35.893614576074775
 20
-8.498199699207841
 30
0.0
 10
35.647032994270994
 20
-8.848811983720351
 30
0.0
 10
35.25697431179475
 20
-9.762483954092959
 30
0.0
 10
34.96312435077927
 20
-11.257724592012107
 30
0.0
 10
34.972075777486
 20
-11.839357953818672
 30
0.0
 10
35.58268694135977
 20
-12.360869155211617
 30
0.0
 10
36.2673627943575
 20
-12.78043905754901
 30
0.0
 10
36.82329513617458
 20
-12.609217776954923
 30
0.0
 10
38.15454885654671
 20
-11.867695088921014
 30
0.0
 10
38.90296777603709
 20
-11.21438707108525
 30
0.0
 10
39.1602219746386
 20
-10.87152889656143
 30
0.0
 10
39.18643988765047
 20
-10.756887424716286
 30
0.0
 10
39.7195147539016
 20
-9.682636639066255
 30
0.0
 10
40.34838227501504
 20
-9.287996056890403
 30
0.0
 10
42.514045040149604
 20
-9.991662544680862
 30
0.0
 10
42.79084563778182
 20
-10.680572536887363
 30
0.0
 10
42.59068349478444
 20
-11.86299322344907
 30
0.0
 10
42.544509665516344
 20
-11.9711506250462
 30
0.0
 10
42.551105705446254
 20
-12.399738938924655
 30
0.0
 10
42.77258451213749
 20
-13.368185831328308
 30
0.0
 10
43.41373529547681
 20
-14.750581591556557
 30
0.0
 10
43.76285266411765
 20
-15.215871349148305
 30
0.0
 10
44.5633840657307
 20
-15.278874536821956
 30
0.0
 10
45.36391546734375
 20
-15.215871349148303
 30
0.0
 10
45.713032835984585
 20
-14.75058159155655
 30
0.0
 10
46.35418361932391
 20
-13.368185831328299
 30
0.0
 10
46.57566242601508
 20
-12.399738938924637
 30
0.0
 10
46.58225846594498
 20
-11.97115062504621
 30
0.0
 10
46.53608463667696
 20
-11.862993223449065
 30
0.0
 10
46.335922493679575
 20
-10.680572536887357
 30
0.0
 10
46.612723091311715
 20
-9.991662544680866
 30
0.0
 10
48.77838585644629
 20
-9.287996056890444
 30
0.0
 10
49.407253377559805
 20
-9.682636639066255
 30
0.0
 10
49.940328243810924
 20
-10.756887424716288
 30
0.0
 10
49.96654615682273
 20
-10.87152889656146
 30
0.0
 10
50.22380035542426
 20
-11.214387071085303
 30
0.0
 10
50.9722192749147
 20
-11.867695088921016
 30
0.0
 10
52.303472995286825
 20
-12.609217776954923
 30
0.0
 10
52.8594053371039
 20
-12.780439057549009
 30
0.0
 10
53.544081190101636
 20
-12.360869155211613
 30
0.0
 10
54.1546923539754
 20
-11.839357953818663
 30
0.0
 10
54.16364378068213
 20
-11.257724592012094
 30
0.0
 10
53.86979381966665
 20
-9.76248395409294
 30
0.0
 10
53.47973513719033
 20
-8.848811983720369
 30
0.0
 10
53.233153555386565
 20
-8.498199699207886
 30
0.0
 10
53.13222481722829
 20
-8.437838819133978
 30
0.0
 10
52.27528080034639
 20
-7.5988927449261805
 30
0.0
 10
52.09428605430803
 20
-6.878853544522503
 30
0.0
 10
53.43273925133129
 20
-5.036630762742881
 30
0.0
 10
54.17346767728163
 20
-4.9862626458368835
 30
0.0
 10
55.23616307242163
 20
-5.5420162428982085
 30
0.0
 10
55.32475837605692
 20
-5.619352639266881
 30
0.0
 10
55.734408373212894
 20
-5.745520505088747
 30
0.0
 10
56.723896816080654
 20
-5.834148190666101
 30
0.0
 10
58.23675979995319
 20
-5.6515613431059
 30
0.0
 10
58.78715985581769
 20
-5.463313437112662
 30
0.0
 10
59.09445725563131
 20
-4.7214318868006355
 30
0.0
 10
59.28191547107615
 20
-3.9406122251066993
 30
0.0
 10
58.9472818150946
 20
-3.4647994343045605
 30
0.0
 10
57.83067180723939
 20
-2.4278450210195466
 30
0.0
 10
56.978064794694546
 20
-1.917939610792304
 30
0.0
 10
56.57249137440644
 20
-1.7792253314562827
 30
0.0
 10
56.45535907489273
 20
-1.7897167775029845
 30
0.0
 10
55.26895667211933
 20
-1.614694201268187
 30
0.0
 10
54.69930042361198
 20
-1.1385562939892306
 30
0.0
 10
54.699300423612
 20
1.1385562939891576
 30
0.0
 10
55.26895667211934
 20
1.614694201268197
 30
0.0
 10
56.45535907489274
 20
1.789716777502995
 30
0.0
 10
56.57249137440645
 20
1.779225331456219
 30
0.0
 10
56.97806479469459
 20
1.91793961079225
 30
0.0
 10
57.8306718072394
 20
2.4278450210195643
 30
0.0
 10
58.947281815094605
 20
3.464799434304572
 30
0.0
 10
59.28191547107615
 20
3.94061222510671
 30
0.0
 10
59.09445725563131
 20
4.721431886800641
 30
0.0
 10
58.78715985581769
 20
5.463313437112673
 30
0.0
 10
58.23675979995318
 20
5.651561343105907
 30
0.0
 10
56.72389681608064
 20
5.8341481906661095
 30
0.0
 10
55.7344083732129
 20
5.745520505088679
 30
0.0
 10
55.32475837605695
 20
5.619352639266822
 30
0.0
 10
55.23616307242162
 20
5.542016242898214
 30
0.0
 10
54.17346767728162
 20
4.98626264583689
 30
0.0
 10
53.43273925133132
 20
5.036630762742808
 30
0.0
 10
52.09428605430809
 20
6.878853544522457
 30
0.0
 10
52.27528080034639
 20
7.598892744926189
 30
0.0
 10
53.13222481722829
 20
8.437838819133987
 30
0.0
 10
53.23315355538661
 20
8.49819969920784
 30
0.0
 10
53.479735137190396
 20
8.84881198372035
 30
0.0
 10
53.86979381966664
 20
9.762483954092957
 30
0.0
 10
54.16364378068212
 20
11.257724592012107
 30
0.0
 10
54.15469235397539
 20
11.83935795381867
 30
0.0
 10
53.54408119010163
 20
12.360869155211617
 30
0.0
 10
52.85940533710389
 20
12.780439057549012
 30
0.0
 10
52.30347299528681
 20
12.609217776954923
 30
0.0
 10
50.97221927491468
 20
11.867695088921014
 30
0.0
 10
50.2238003554243
 20
11.214387071085248
 30
0.0
 10
49.96654615682279
 20
10.871528896561426
 30
0.0
 10
49.94032824381092
 20
10.756887424716286
 30
0.0
 10
49.40725337755979
 20
9.682636639066255
 30
0.0
 10
48.77838585644635
 20
9.287996056890401
 30
0.0
 10
46.61272309131179
 20
9.991662544680864
 30
0.0
 10
46.33592249367957
 20
10.680572536887363
 30
0.0
 10
46.536084636676954
 20
11.86299322344907
 30
0.0
 10
46.582258465945046
 20
11.9711506250462
 30
0.0
 10
46.57566242601514
 20
12.399738938924656
 30
0.0
 10
46.3541836193239
 20
13.368185831328308
 30
0.0
 10
45.71303283598458
 20
14.750581591556555
 30
0.0
 10
45.36391546734374
 20
15.215871349148305
 30
0.0
 10
44.563384065730695
 20
15.278874536821956
 30
0.0
 10
43.762852664117645
 20
15.215871349148305
 30
0.0
 10
43.413735295476805
 20
14.75058159155655
 30
0.0
 10
42.77258451213748
 20
13.368185831328297
 30
0.0
 10
42.55110570544632
 20
12.399738938924639
 30
0.0
 10
42.54450966551641
 20
11.971150625046208
 30
0.0
 10
42.59068349478443
 20
11.862993223449065
 30
0.0
 10
42.790845637781814
 20
10.680572536887357
 30
0.0
 10
42.514045040149675
 20
9.991662544680867
 30
0.0
 10
40.3483822750151
 20
9.287996056890446
 30
0.0
 10
39.71951475390159
 20
9.682636639066255
 30
0.0
 10
39.186439887650465
 20
10.75688742471629
 30
0.0
 10
39.16022197463866
 20
10.87152889656146
 30
0.0
 10
38.90296777603713
 20
11.214387071085305
 30
0.0
 10
38.15454885654669
 20
11.867695088921018
 30
0.0
 10
36.823295136174565
 20
12.609217776954923
 30
0.0
 10
36.267362794357496
 20
12.780439057549009
 30
0.0
 10
35.58268694135975
 20
12.360869155211613
 30
0.0
 10
34.97207577748599
 20
11.839357953818663
 30
0.0
 10
34.96312435077926
 20
11.257724592012096
 30
0.0
 10
35.25697431179474
 20
9.762483954092943
 30
0.0
 10
35.64703299427106
 20
8.848811983720372
 30
0.0
 10
35.893614576074825
 20
8.498199699207888
 30
0.0
 10
35.9945433142331
 20
8.437838819133978
 30
0.0
 10
36.851487331115
 20
7.598892744926182
 30
0.0
 10
37.03248207715336
 20
6.878853544522503
 30
0.0
 10
35.6940288801301
 20
5.036630762742882
 30
0.0
 10
34.95330045417976
 20
4.986262645836885
 30
0.0
 10
33.89060505903976
 20
5.54201624289821
 30
0.0
 10
33.80200975540447
 20
5.619352639266883
 30
0.0
 10
33.39235975824849
 20
5.745520505088749
 30
0.0
 10
32.402871315380736
 20
5.834148190666102
 30
0.0
 10
30.890008331508202
 20
5.651561343105902
 30
0.0
 10
30.339608275643698
 20
5.463313437112664
 30
0.0
  0
LWPOLYLINE
  8
OpenJsCad
  90
31
  70
1
 10
43.563384065730695
 20
1.7320508075688772
 30
0.0
 10
43.9453500769808
 20
1.902113032590307
 30
0.0
 10
44.354327139195384
 20
1.9890437907365466
 30
0.0
 10
44.772440992266
 20
1.989043790736547
 30
0.0
 10
45.18141805448059
 20
1.9021130325903075
 30
0.0
 10
45.563384065730695
 20
1.732050807568878
 30
0.0
 10
45.90164527844841
 20
1.4862896509547892
 30
0.0
 10
46.18141805448059
 20
1.1755705045849467
 30
0.0
 10
46.3904749810159
 20
0.8134732861516003
 30
0.0
 10
46.519679267198306
 20
0.4158233816355179
 30
0.0
 10
46.563384065730695
 20
4.440892098500626e-16
 30
0.0
 10
46.519679267198306
 20
-0.41582338163551913
 30
0.0
 10
46.3904749810159
 20
-0.8134732861516004
 30
0.0
 10
46.18141805448059
 20
-1.175570504584946
 30
0.0
 10
45.90164527844841
 20
-1.486289650954788
 30
0.0
 10
45.563384065730695
 20
-1.7320508075688774
 30
0.0
 10
45.18141805448059
 20
-1.9021130325903073
 30
0.0
 10
44.772440992266006
 20
-1.9890437907365468
 30
0.0
 10
44.35432713919539
 20
-1.989043790736547
 30
0.0
 10
43.9453500769808
 20
-1.9021130325903075
 30
0.0
 10
43.563384065730695
 20
-1.7320508075688774
 30
0.0
 10
43.22512285301298
 20
-1.4862896509547887
 30
0.0
 10
42.9453500769808
 20
-1.1755705045849467
 30
0.0
 10
42.73629315044549
 20
-0.813473286151601
 30
0.0
 10
42.60708886426308
 20
-0.41582338163551935
 30
0.0
 10
42.563384065730695
 20
-6.661338147750939e-16
 30
0.0
 10
42.60708886426308
 20
0.41582338163551835
 30
0.0
 10
42.73629315044549
 20
0.8134732861515999
 30
0.0
 10
42.9453500769808
 20
1.175570504584946
 30
0.0
 10
43.22512285301298
 20
1.4862896509547883
 30
0.0
 10
43.563384065730695
 20
1.7320508075688772
 30
0.0
  0
ENDSEC
  0
EOF
